<?xml version="1.0" encoding="utf-8"?>
<!-- Generator: Adobe Illustrator 19.2.1, SVG Export Plug-In . SVG Version: 6.00 Build 0)  -->
<svg version="1.1" id="Layer_1" xmlns="http://www.w3.org/2000/svg" xmlns:xlink="http://www.w3.org/1999/xlink" x="0px" y="0px"
	 viewBox="0 0 58.8 41.9" style="enable-background:new 0 0 58.8 41.9;" xml:space="preserve">
<style type="text/css">
	.st0{opacity:0.5;}
	.st1{fill:none;stroke:#2F9798;stroke-width:1.9966;stroke-linecap:round;stroke-linejoin:round;stroke-miterlimit:10;}
	.st2{fill:#2F9798;}
	.st3{fill:none;stroke:#404146;stroke-width:1.9966;stroke-linecap:round;stroke-linejoin:round;stroke-miterlimit:10;}
	.st4{fill:#404146;}
</style>
<g class="st0">
	<polygon class="st1" points="32.1,17.2 54,22.5 50.9,14 57.8,8 35.6,2.6 	"/>
	<line class="st1" x1="35.6" y1="2.6" x2="26.3" y2="40.9"/>
	<rect x="36.1" y="3.1" transform="matrix(0.2346 -0.9721 0.9721 0.2346 24.2336 40.6824)" class="st2" width="3.7" height="3.7"/>
	<rect x="43.3" y="4.8" transform="matrix(0.2346 -0.9721 0.9721 0.2346 28.0994 48.9915)" class="st2" width="3.7" height="3.7"/>
	<rect x="50.5" y="6.6" transform="matrix(0.2346 -0.9721 0.9721 0.2346 31.8527 57.3522)" class="st2" width="3.7" height="3.7"/>
	<rect x="34.3" y="10.3" transform="matrix(0.2346 -0.9721 0.9721 0.2346 15.8729 44.4357)" class="st2" width="3.7" height="3.7"/>
	<rect x="41.6" y="12.1" transform="matrix(0.2346 -0.9721 0.9721 0.2346 19.6779 52.9089)" class="st2" width="3.7" height="3.7"/>
	<polygon class="st2" points="52,17.9 48.4,17 49.2,13.4 51.8,14 	"/>
	<rect x="38.8" y="7.6" transform="matrix(0.2346 -0.9721 0.9721 0.2346 21.9299 46.7394)" class="st2" width="3.7" height="3.7"/>
	<rect x="46" y="9.3" transform="matrix(0.2346 -0.9721 0.9721 0.2346 25.7957 55.0485)" class="st2" width="3.7" height="3.7"/>
	<rect x="37.1" y="14.8" transform="matrix(0.2346 -0.9721 0.9721 0.2346 13.6209 50.6052)" class="st2" width="3.7" height="3.7"/>
	<rect x="44.3" y="16.5" transform="matrix(0.2346 -0.9721 0.9721 0.2346 17.4867 58.9143)" class="st2" width="3.7" height="3.7"/>
</g>
<g class="st0">
	<polygon class="st1" points="28.3,17.2 6.4,22.5 9.5,14 2.6,8 24.8,2.6 	"/>
	<line class="st1" x1="24.8" y1="2.6" x2="34.1" y2="40.9"/>
	<rect x="20.6" y="3.1" transform="matrix(0.9721 -0.2346 0.2346 0.9721 -0.539 5.4125)" class="st2" width="3.7" height="3.7"/>
	<rect x="13.4" y="4.9" transform="matrix(0.9721 -0.2346 0.2346 0.9721 -1.1572 3.7721)" class="st2" width="3.7" height="3.7"/>
	<rect x="6.2" y="6.6" transform="matrix(0.9721 -0.2346 0.2346 0.9721 -1.7533 2.1235)" class="st2" width="3.7" height="3.7"/>
	<rect x="22.3" y="10.3" transform="matrix(0.9721 -0.2346 0.2346 0.9721 -2.1876 6.0086)" class="st2" width="3.7" height="3.7"/>
	<rect x="15.2" y="12" transform="matrix(0.9721 -0.2346 0.2346 0.9721 -2.7755 4.3821)" class="st2" width="3.7" height="3.7"/>
	<polygon class="st2" points="8.4,17.9 12,17 11.2,13.4 8.6,14 	"/>
	<rect x="17.9" y="7.6" transform="matrix(0.9721 -0.2346 0.2346 0.9721 -1.6613 4.8862)" class="st2" width="3.7" height="3.7"/>
	<rect x="10.7" y="9.4" transform="matrix(0.9721 -0.2346 0.2346 0.9721 -2.2796 3.2458)" class="st2" width="3.7" height="3.7"/>
	<rect x="19.6" y="14.8" transform="matrix(0.9721 -0.2346 0.2346 0.9721 -3.3018 5.5045)" class="st2" width="3.7" height="3.7"/>
	<rect x="12.4" y="16.6" transform="matrix(0.9721 -0.2346 0.2346 0.9721 -3.92 3.8641)" class="st2" width="3.7" height="3.7"/>
</g>
<g>
	<polygon class="st3" points="30.4,15.5 52.3,20.8 49.3,12.4 56.1,6.3 33.9,1 	"/>
	<line class="st3" x1="33.9" y1="1" x2="24.7" y2="39.2"/>
	<rect x="34.4" y="1.4" transform="matrix(0.2346 -0.9721 0.9721 0.2346 24.5942 37.7309)" class="st4" width="3.7" height="3.7"/>
	<rect x="41.6" y="3.2" transform="matrix(0.2346 -0.9721 0.9721 0.2346 28.3476 46.0916)" class="st4" width="3.7" height="3.7"/>
	<rect x="48.8" y="4.9" transform="matrix(0.2346 -0.9721 0.9721 0.2346 32.2134 54.4007)" class="st4" width="3.7" height="3.7"/>
	<rect x="32.7" y="8.6" transform="matrix(0.2346 -0.9721 0.9721 0.2346 16.2852 41.5966)" class="st4" width="3.7" height="3.7"/>
	<rect x="39.9" y="10.4" transform="matrix(0.2346 -0.9721 0.9721 0.2346 20.0386 49.9574)" class="st4" width="3.7" height="3.7"/>
	<polygon class="st4" points="50.3,16.2 46.7,15.3 47.6,11.7 50.1,12.4 	"/>
	<rect x="37.1" y="5.9" transform="matrix(0.2346 -0.9721 0.9721 0.2346 22.2906 43.7878)" class="st4" width="3.7" height="3.7"/>
	<rect x="44.3" y="7.6" transform="matrix(0.2346 -0.9721 0.9721 0.2346 26.1564 52.097)" class="st4" width="3.7" height="3.7"/>
	<rect x="35.4" y="13.1" transform="matrix(0.2346 -0.9721 0.9721 0.2346 13.9816 47.6537)" class="st4" width="3.7" height="3.7"/>
	<rect x="42.6" y="14.9" transform="matrix(0.2346 -0.9721 0.9721 0.2346 17.7349 56.0143)" class="st4" width="3.7" height="3.7"/>
</g>
<g>
	<polygon class="st3" points="26.7,15.5 4.8,20.8 7.8,12.4 1,6.3 23.2,1 	"/>
	<line class="st3" x1="23.2" y1="1" x2="32.4" y2="39.2"/>
	<rect x="19" y="1.5" transform="matrix(0.9721 -0.2346 0.2346 0.9721 -0.1955 4.9792)" class="st4" width="3.7" height="3.7"/>
	<rect x="11.8" y="3.1" transform="matrix(0.9721 -0.2346 0.2346 0.9721 -0.7916 3.3306)" class="st4" width="3.7" height="3.7"/>
	<rect x="4.5" y="4.9" transform="matrix(0.9721 -0.2346 0.2346 0.9721 -1.4099 1.6902)" class="st4" width="3.7" height="3.7"/>
	<rect x="20.7" y="8.7" transform="matrix(0.9721 -0.2346 0.2346 0.9721 -1.8442 5.5753)" class="st4" width="3.7" height="3.7"/>
	<rect x="13.4" y="10.4" transform="matrix(0.9721 -0.2346 0.2346 0.9721 -2.4403 3.9267)" class="st4" width="3.7" height="3.7"/>
	<polygon class="st4" points="6.7,16.2 10.3,15.3 9.5,11.7 6.9,12.4 	"/>
	<rect x="16.2" y="5.9" transform="matrix(0.9721 -0.2346 0.2346 0.9721 -1.3179 4.453)" class="st4" width="3.7" height="3.7"/>
	<rect x="9" y="7.7" transform="matrix(0.9721 -0.2346 0.2346 0.9721 -1.9362 2.8125)" class="st4" width="3.7" height="3.7"/>
	<rect x="18" y="13.1" transform="matrix(0.9721 -0.2346 0.2346 0.9721 -2.9583 5.0712)" class="st4" width="3.7" height="3.7"/>
	<rect x="10.8" y="14.8" transform="matrix(0.9721 -0.2346 0.2346 0.9721 -3.5544 3.4226)" class="st4" width="3.7" height="3.7"/>
</g>
</svg>
