<?xml version="1.0" encoding="utf-8"?>
<!-- Generator: Adobe Illustrator 19.2.1, SVG Export Plug-In . SVG Version: 6.00 Build 0)  -->
<svg version="1.1" id="Layer_1" xmlns="http://www.w3.org/2000/svg" xmlns:xlink="http://www.w3.org/1999/xlink" x="0px" y="0px"
	 viewBox="0 0 30.6 51.3" style="enable-background:new 0 0 30.6 51.3;" xml:space="preserve">
<style type="text/css">
	.st0{opacity:0.5;fill:#31979A;enable-background:new    ;}
	.st1{fill:none;stroke:#404146;stroke-width:2;stroke-miterlimit:10;}
	.st2{fill:none;stroke:#404146;stroke-width:1.75;stroke-linecap:round;stroke-linejoin:round;stroke-miterlimit:10;}
	.st3{fill:none;stroke:#404146;stroke-width:1.75;stroke-miterlimit:10;}
</style>
<polygon class="st0" points="19,4 22,2.1 23,5.6 26.4,5.1 26.4,8.6 29.5,9.4 28,12.6 30.6,15 28.1,17 29.7,19.9 26.2,21 26.8,24.8 
	23.1,24 22.5,27.6 19,25.2 17,29.1 14.8,25.3 11.5,28.1 11.2,23.6 7.1,25 8.1,20.8 4,20.5 6.4,17 2.9,15 6.1,12.8 3.9,9.6 7.7,8.8 
	7.1,5.2 10.7,5.6 11.5,2.1 14.8,4.3 17,0.9 "/>
<path class="st0" d="M10.3,32.6v16.7l6.6-4.3l6.6,4.6v-17C23.5,32.6,17,37.4,10.3,32.6z"/>
<circle class="st1" cx="14.8" cy="15" r="6.3"/>
<polygon class="st2" points="17,4 20,2.1 21,5.6 24.4,5.1 24.4,8.6 27.5,9.4 26,12.6 28.6,15 26.1,17 27.7,19.9 24.2,21 24.8,24.8 
	21.1,24 20.5,27.6 17,25.2 15,29.1 12.8,25.3 9.5,28.1 9.2,23.6 5.1,25 6.1,20.8 2,20.5 4.4,17 0.9,15 4.1,12.8 1.9,9.6 5.7,8.8 
	5.1,5.2 8.7,5.6 9.5,2.1 12.8,4.3 15,0.9 "/>
<path class="st3" d="M8.5,32.6v16.7l6.6-4.3l6.6,4.6v-17C21.7,32.6,15.2,37.4,8.5,32.6z"/>
</svg>
