<?xml version="1.0" encoding="utf-8"?>
<!-- Generator: Adobe Illustrator 18.1.1, SVG Export Plug-In . SVG Version: 6.00 Build 0)  -->
<!DOCTYPE svg PUBLIC "-//W3C//DTD SVG 1.1//EN" "http://www.w3.org/Graphics/SVG/1.1/DTD/svg11.dtd">
<svg version="1.1" id="Layer_1" xmlns="http://www.w3.org/2000/svg" xmlns:xlink="http://www.w3.org/1999/xlink" x="0px" y="0px"
	 viewBox="0 0 60.7 53" enable-background="new 0 0 60.7 53" xml:space="preserve">
<g>
	<path opacity="0.5" fill="#FFFFFF" d="M56.8,19.4C56.8,12.3,51,6.6,44,6.6c-5.3,0-9.9,3.3-11.8,7.9c-1.9-4.7-6.5-7.9-11.8-7.9
		c-7.1,0-12.8,5.7-12.8,12.8c0,4.2,2,8,5.2,10.3l19.4,19.4c0,0,21.1-21.3,21.5-22.1C53.7,27.1,56.8,22.3,56.8,19.4z"/>
	<path fill="none" stroke="#404146" stroke-width="2.3916" stroke-miterlimit="10" d="M55.2,18c0-7.3-5.9-13.3-13.3-13.3
		c-5.5,0-10.3,3.4-12.3,8.2c-2-4.8-6.7-8.2-12.3-8.2C10,4.7,4.1,10.7,4.1,18c0,4.4,2.1,8.3,5.4,10.7l20.2,20.2
		c0,0,21.9-22.1,22.4-22.9C52,25.9,55.2,21,55.2,18z"/>
	
		<path fill="none" stroke="#404146" stroke-width="1.8699" stroke-linecap="round" stroke-linejoin="round" stroke-miterlimit="10" d="
		M19.9,9.1c-4.1,0-7.7,2.4-9.3,5.9"/>
	
		<path fill="none" stroke="#404146" stroke-width="1.8699" stroke-linecap="round" stroke-linejoin="round" stroke-miterlimit="10" d="
		M9.6,18.4c-0.1,0.6-0.2,1.3-0.2,2"/>
</g>
</svg>
