<?xml version="1.0" encoding="utf-8"?>
<!-- Generator: Adobe Illustrator 18.1.1, SVG Export Plug-In . SVG Version: 6.00 Build 0)  -->
<!DOCTYPE svg PUBLIC "-//W3C//DTD SVG 1.1//EN" "http://www.w3.org/Graphics/SVG/1.1/DTD/svg11.dtd">
<svg version="1.1" id="Layer_1" xmlns="http://www.w3.org/2000/svg" xmlns:xlink="http://www.w3.org/1999/xlink" x="0px" y="0px"
	 viewBox="0 0 60.7 53" enable-background="new 0 0 60.7 53" xml:space="preserve">
<polyline opacity="0.5" fill="none" stroke="#34979D" stroke-width="1.75" stroke-miterlimit="10" points="50.9,25.9 50.9,49.1 
	7.8,49.1 7.8,6 40.2,6 "/>
<g opacity="0.5">
	<polygon fill="#34979D" points="25.9,34.2 29.5,24.7 35.7,31.4 	"/>
	<line fill="#34979D" x1="47.7" y1="7.8" x2="54.4" y2="15.2"/>
	<polyline fill="#34979D" points="54.1,14.8 38.4,29.1 32.3,22.4 48,8.1 	"/>
	<path fill="#34979D" d="M56.5,12.6c1.9-1.7,2-4.6,0.3-6.4s-4.6-2-6.4-0.3"/>
</g>
<g>
	
		<polygon fill="none" stroke="#404146" stroke-width="1.75" stroke-linecap="round" stroke-linejoin="round" stroke-miterlimit="10" points="
		23.2,33 26.9,23.5 33,30.2 	"/>
	<line fill="none" stroke="#404146" stroke-width="1.75" stroke-miterlimit="10" x1="45" y1="6.6" x2="51.8" y2="14"/>
	
		<polyline fill="none" stroke="#404146" stroke-width="1.75" stroke-linecap="round" stroke-linejoin="round" stroke-miterlimit="10" points="
		51.4,13.7 35.8,27.9 29.7,21.2 45.3,7 	"/>
	
		<path fill="none" stroke="#404146" stroke-width="1.75" stroke-linecap="round" stroke-linejoin="round" stroke-miterlimit="10" d="
		M53.9,11.5c1.9-1.7,2-4.6,0.3-6.4s-4.6-2-6.4-0.3"/>
</g>
<polyline fill="none" stroke="#404146" stroke-width="1.75" stroke-linecap="round" stroke-linejoin="round" stroke-miterlimit="10" points="
	48.3,24.7 48.3,48 5.2,48 5.2,4.9 37.5,4.9 "/>
</svg>
