<?xml version="1.0" encoding="utf-8"?>
<!-- Generator: Adobe Illustrator 19.2.1, SVG Export Plug-In . SVG Version: 6.00 Build 0)  -->
<svg version="1.1" id="Layer_1" xmlns="http://www.w3.org/2000/svg" xmlns:xlink="http://www.w3.org/1999/xlink" x="0px" y="0px"
	 viewBox="0 0 51.9 34.4" style="enable-background:new 0 0 51.9 34.4;" xml:space="preserve">
<style type="text/css">
	.st0{opacity:0.5;fill:#31979A;enable-background:new    ;}
	.st1{opacity:0.5;}
	.st2{fill:none;}
	.st3{fill:#31979A;}
	.st4{fill:#33979C;}
	.st5{fill:none;stroke:#404146;stroke-width:2;stroke-miterlimit:10;}
	.st6{fill:none;stroke:#404146;stroke-width:1.9034;stroke-miterlimit:10;}
	.st7{fill:none;stroke:#404146;stroke-width:2;stroke-linecap:round;stroke-linejoin:round;stroke-miterlimit:10;}
	.st8{fill:none;stroke:#000000;stroke-width:1.9034;stroke-miterlimit:10;}
</style>
<path class="st0" d="M39.9,23.3c0,0,2.8,1.3,2.8,1.8c0.1,0.5,0.4,1,0.1,1.8s-1.3,2.4-1.3,2.4s-0.9,0.3-1.6,0
	c-0.7-0.3-2.7-1.2-2.7-1.2s0.2,1,0,1.5S35.9,32,35.9,32s-0.9,0.9-1.8,0.4c-0.9-0.5-6.3-3.2-6.3-3.2L39.9,23.3z"/>
<g>
	<g class="st1">
		<line class="st2" x1="25" y1="11.6" x2="25.2" y2="11.5"/>
		<line class="st2" x1="25.7" y1="11.2" x2="25.2" y2="11.5"/>
		<line class="st2" x1="7.9" y1="21.1" x2="8.2" y2="21"/>
		<line class="st2" x1="25" y1="11.6" x2="8.2" y2="21"/>
		<path class="st3" d="M6.9,21.1c0,0-3.4-2.2-4.8-5.5c-1.1-2.5-0.5-5.9,0.5-8l0.2-0.4c2.4-5.3,8.7-7.7,14-5.3l11.5,5.5l5.2,2.3
			c0,0,1.6,0.7,1.2,2c-0.4,1.2-0.9,3-1.5,3s-0.2,0.4-1.8-0.2s-6.9-3.1-6.9-3.1l0.5,1.3L13,18c0,0-1.3,0.6-1,2.2s1,2.2,1.4,2.4
			s0.7,0.7,0.7,0.7l-2.5,1.2L7.7,22"/>
		<line class="st2" x1="25.2" y1="11.5" x2="25.4" y2="11.9"/>
		<line class="st2" x1="24.7" y1="10.8" x2="25.2" y2="11.5"/>
		<line class="st2" x1="25" y1="11.6" x2="25.4" y2="11.9"/>
		<line class="st2" x1="35.9" y1="28.5" x2="25.4" y2="11.9"/>
		<line class="st2" x1="25.7" y1="11.2" x2="24.7" y2="10.8"/>
		<polyline class="st4" points="25,11.6 21.6,9.4 24.7,10.8 		"/>
		<line class="st2" x1="8.2" y1="21" x2="35.9" y2="28.5"/>
		<polyline class="st4" points="8.2,21 7.2,20.7 7.9,21.1 		"/>
	</g>
	<g class="st1">
		<line class="st2" x1="31.2" y1="16.8" x2="17.8" y2="22.9"/>
		<path class="st3" d="M33.3,21.8l-16,7.1c-1.1,0.5-2.4,0-2.9-1.1l-0.3-0.7c-0.5-1.1,0-2.4,1.1-2.9l2.6-1.2l12.6-5.7L33.3,21.8z"/>
		<path class="st3" d="M33.9,21.4l-12.2,5.4c-1,0.4-1.4,1.6-1,2.6l0.5,1.2c0.4,1,1.6,1.4,2.6,1L36,26.2"/>
		<path class="st3" d="M17.8,22.9c-1.1,0.5-2.4,0-2.9-1.1L14.6,21c-0.5-1.1,0-2.4,1.1-2.9l12.7-5.8l2.5,4.8L17.8,22.9L17.8,22.9
			l13-5.9"/>
		<path class="st3" d="M32.1,27.9l13.6-6.1c5.3-2.4,7.7-8.7,5.3-14l-0.2-0.4c-2.4-5.3-8.7-7.7-14-5.3L28,6l0.4,1.4l5.9,2.8
			c0,0,0.8,0.5,0.5,1.4c-0.2,0.9-1.4,2.8-1.4,2.8s-1.5,0.3-1.9,0.1S29,13.3,29,13.3"/>
	</g>
	<g>
		<line class="st5" x1="28.7" y1="16.7" x2="15.4" y2="22.7"/>
		<path class="st5" d="M15.4,22.7l-2.6,1.2c-1.1,0.5-1.6,1.8-1.1,2.9l0.3,0.7c0.5,1.1,1.8,1.6,2.9,1.1l16-7.2"/>
		<path class="st5" d="M19.3,26.7c-1,0.4-1.4,1.6-1,2.6l0.5,1.2c0.4,1,1.6,1.4,2.6,1l12.2-5.4"/>
		<path class="st5" d="M25.9,12.2L13.2,18c-1.1,0.5-1.6,1.8-1.1,2.9l0.3,0.8c0.5,1.1,1.8,1.6,2.9,1.1"/>
		<path class="st5" d="M29.6,27.8l13.6-6.1c5.3-2.4,7.7-8.7,5.3-14l-0.2-0.4C45.9,2,39.6-0.4,34.3,2l-8.7,3.9"/>
	</g>
	<g>
		<path class="st5" d="M20,9.4l11.5,5.1c1,0.5,2.3,0,2.7-1.1l0.4-1c0.5-1,0-2.3-1.1-2.7l-8-3.6"/>
		<line class="st6" x1="5.6" y1="20.7" x2="11.6" y2="24.5"/>
		<path class="st5" d="M29.8,8L16.2,1.9c-5.3-2.4-11.6,0-14,5.3L2,7.6c-2.3,5-0.3,10.8,4.3,13.5"/>
		<line class="st5" x1="31.5" y1="27.3" x2="34.3" y2="28.5"/>
		<path class="st5" d="M37.7,24.3l1.9,0.9c1.1,0.5,1.6,1.8,1.1,2.9l-0.3,0.7c-0.5,1.1-1.8,1.6-2.9,1.1l-3.2-1.4"/>
		<path class="st5" d="M25.3,30.2l6.6,3c1,0.4,2.2,0,2.6-1L35,31c0.4-0.9,0.1-2-0.8-2.5"/>
		<path class="st6" d="M38.2,24.1c1,0.5,2.3,0,2.7-1"/>
	</g>
	<path class="st7" d="M17.7,11.3c0,0-3.5,1.8-7.4-2"/>
</g>
<path class="st8" d="M25.9,6.3"/>
</svg>
