<?xml version="1.0" encoding="utf-8"?>
<!-- Generator: Adobe Illustrator 18.1.1, SVG Export Plug-In . SVG Version: 6.00 Build 0)  -->
<!DOCTYPE svg PUBLIC "-//W3C//DTD SVG 1.1//EN" "http://www.w3.org/Graphics/SVG/1.1/DTD/svg11.dtd">
<svg version="1.1" id="Layer_1" xmlns="http://www.w3.org/2000/svg" xmlns:xlink="http://www.w3.org/1999/xlink" x="0px" y="0px"
	 viewBox="0 0 60.7 53" enable-background="new 0 0 60.7 53" xml:space="preserve">
<g opacity="0.5">
	<path fill="none" stroke="#2F9798" stroke-width="2.133" stroke-miterlimit="10" d="M44.5,44.3H33c-1.2,0-2.2-1-2.2-2.2v-2.6
		c0-1.2,1-2.2,2.2-2.2h11.5c1.2,0,2.2,1,2.2,2.2v2.6C46.7,43.4,45.7,44.3,44.5,44.3z"/>
	<path fill="none" stroke="#2F9798" stroke-width="2.133" stroke-miterlimit="10" d="M42.2,37.4H33c-1.2,0-2.1-1-2.1-2.1v-2.7
		c0-1.2,1-2.1,2.1-2.1h9.3c1.2,0,2.1,1,2.1,2.1v2.7C44.4,36.4,43.4,37.4,42.2,37.4z"/>
	<path fill="none" stroke="#2F9798" stroke-width="2.133" stroke-miterlimit="10" d="M38.3,51.3h-5.1c-1.3,0-2.4-1.1-2.4-2.4v-2.1
		c0-1.3,1.1-2.4,2.4-2.4h5.1c1.3,0,2.4,1.1,2.4,2.4v2.1C40.8,50.2,39.7,51.3,38.3,51.3z"/>
	
		<path fill="none" stroke="#2F9798" stroke-width="2.133" stroke-linecap="round" stroke-linejoin="round" stroke-miterlimit="10" d="
		M26.5,37.9c0,0,0.3,3.1-3.6,4.9"/>
	
		<path fill="none" stroke="#2F9798" stroke-width="2.133" stroke-linecap="round" stroke-linejoin="round" stroke-miterlimit="10" d="
		M32.2,51.2l-5.7,0.2c-2.9,0.1-5.5-1.4-7.1-3.6H14V30.3l7.6,0.1c0,0,6.4-2.7,10.9-10l1.1-2.8c0.5-1.7,2.3-2.6,4-2.1
		c1.7,0.5,2.6,2.3,2.1,4l-1.2,3.8C35.5,31.3,35,30,35,30"/>
</g>
<g>
	<path fill="none" stroke="#404146" stroke-width="2.1334" stroke-miterlimit="10" d="M42.2,41.9H30.6c-1.2,0-2.2-1-2.2-2.2v-2.6
		c0-1.2,1-2.2,2.2-2.2h11.5c1.2,0,2.2,1,2.2,2.2v2.6C44.4,40.9,43.4,41.9,42.2,41.9z"/>
	<path fill="none" stroke="#404146" stroke-width="2.1334" stroke-miterlimit="10" d="M39.9,34.9h-9.3c-1.2,0-2.1-1-2.1-2.1v-2.7
		c0-1.2,1-2.1,2.1-2.1h9.3c1.2,0,2.1,1,2.1,2.1v2.7C42,34,41,34.9,39.9,34.9z"/>
	<path fill="none" stroke="#404146" stroke-width="2.1334" stroke-miterlimit="10" d="M36,48.9h-5.1c-1.3,0-2.4-1.1-2.4-2.4v-2.1
		c0-1.3,1.1-2.4,2.4-2.4H36c1.3,0,2.4,1.1,2.4,2.4v2.1C38.4,47.8,37.3,48.9,36,48.9z"/>
	
		<path fill="none" stroke="#404146" stroke-width="2.1334" stroke-linecap="round" stroke-linejoin="round" stroke-miterlimit="10" d="
		M24.1,35.5c0,0,0.3,3.1-3.6,4.9"/>
	
		<path fill="none" stroke="#404146" stroke-width="2.1334" stroke-linecap="round" stroke-linejoin="round" stroke-miterlimit="10" d="
		M29.8,48.8L24.2,49c-2.9,0.1-5.5-1.4-7.1-3.6h-5.5V27.8l7.6,0.1c0,0,6.4-2.7,10.9-10l1.1-2.8c0.5-1.7,2.3-2.6,4-2.1s2.6,2.3,2.1,4
		L36,20.8c-2.9,8.1-3.4,6.7-3.4,6.7"/>
</g>
<line opacity="0.5" fill="none" stroke="#32979B" stroke-width="1.75" stroke-linecap="round" stroke-linejoin="round" stroke-miterlimit="10" x1="44.7" y1="18" x2="49.6" y2="15.8"/>
<line opacity="0.5" fill="none" stroke="#32979B" stroke-width="1.75" stroke-linecap="round" stroke-linejoin="round" stroke-miterlimit="10" x1="40" y1="12" x2="43.4" y2="7.8"/>
<line opacity="0.5" fill="none" stroke="#32979B" stroke-width="1.75" stroke-linecap="round" stroke-linejoin="round" stroke-miterlimit="10" x1="33.8" y1="8.8" x2="33.9" y2="3.4"/>
<line fill="none" stroke="#404146" stroke-width="1.75" stroke-linecap="round" stroke-linejoin="round" stroke-miterlimit="10" x1="44.2" y1="15.8" x2="49.1" y2="13.6"/>
<line fill="none" stroke="#404146" stroke-width="1.75" stroke-linecap="round" stroke-linejoin="round" stroke-miterlimit="10" x1="38.9" y1="10" x2="42.3" y2="5.8"/>
<line fill="none" stroke="#404146" stroke-width="1.75" stroke-linecap="round" stroke-linejoin="round" stroke-miterlimit="10" x1="32" y1="7.4" x2="32.1" y2="2.1"/>
</svg>
