<?xml version="1.0" encoding="utf-8"?>
<!-- Generator: Adobe Illustrator 18.1.1, SVG Export Plug-In . SVG Version: 6.00 Build 0)  -->
<!DOCTYPE svg PUBLIC "-//W3C//DTD SVG 1.1//EN" "http://www.w3.org/Graphics/SVG/1.1/DTD/svg11.dtd">
<svg version="1.1" id="Layer_1" xmlns="http://www.w3.org/2000/svg" xmlns:xlink="http://www.w3.org/1999/xlink" x="0px" y="0px"
	 viewBox="0 0 60.7 53" enable-background="new 0 0 60.7 53" xml:space="preserve">
<circle opacity="0.5" fill="none" stroke="#33979C" stroke-width="1.75" stroke-miterlimit="10" cx="48.9" cy="9.7" r="6.5"/>
<path opacity="0.5" fill="none" stroke="#33979C" stroke-width="1.75" stroke-miterlimit="10" d="M39.3,22.6c0-2.7,1.1-5.2,3-6.9"/>
<path opacity="0.5" fill="none" stroke="#33979C" stroke-width="1.75" stroke-miterlimit="10" d="M55.4,15.6c1.8,1.7,3,4.2,3,6.9"/>
<text transform="matrix(1 0 0 1 25.3926 35.1367)" opacity="0.5" fill="#33979C" font-family="'Helvetica-Bold'" font-size="20">$</text>
<circle opacity="0.5" fill="none" stroke="#33979C" stroke-width="1.75" stroke-miterlimit="10" cx="15.6" cy="37.2" r="6.5"/>
<path opacity="0.5" fill="none" stroke="#33979C" stroke-width="1.75" stroke-miterlimit="10" d="M6,50.1c0-2.7,1.1-5.2,3-6.9"/>
<path opacity="0.5" fill="none" stroke="#33979C" stroke-width="1.75" stroke-miterlimit="10" d="M22.1,43.1c1.8,1.7,3,4.2,3,6.9"/>
<g opacity="0.5">
	<g>
		
			<line fill="none" stroke="#33979C" stroke-width="1.75" stroke-linecap="round" stroke-linejoin="round" x1="36.2" y1="9.4" x2="35.7" y2="9.4"/>
		
			<line fill="none" stroke="#33979C" stroke-width="1.75" stroke-linecap="round" stroke-linejoin="round" stroke-dasharray="0.9899,3.9595" x1="31.7" y1="9.4" x2="18.8" y2="9.4"/>
		<polyline fill="none" stroke="#33979C" stroke-width="1.75" stroke-linecap="round" stroke-linejoin="round" points="16.9,9.4 
			16.3,9.4 16.3,9.9 		"/>
		
			<line fill="none" stroke="#33979C" stroke-width="1.75" stroke-linecap="round" stroke-linejoin="round" stroke-dasharray="1.0892,4.3566" x1="16.3" y1="14.3" x2="16.3" y2="23"/>
		
			<line fill="none" stroke="#33979C" stroke-width="1.75" stroke-linecap="round" stroke-linejoin="round" x1="16.3" y1="25.2" x2="16.3" y2="25.7"/>
		<g>
			<polygon fill="#33979C" points="10.3,20.8 11.3,19.7 16.3,25.1 21.3,19.7 22.4,20.8 16.3,27.3 			"/>
		</g>
	</g>
</g>
<g opacity="0.5">
	<g>
		
			<line fill="none" stroke="#33979C" stroke-width="1.75" stroke-linecap="round" stroke-linejoin="round" x1="29.4" y1="44.1" x2="29.9" y2="44.1"/>
		
			<line fill="none" stroke="#33979C" stroke-width="1.75" stroke-linecap="round" stroke-linejoin="round" stroke-dasharray="0.9899,3.9595" x1="33.9" y1="44.1" x2="46.7" y2="44.1"/>
		<polyline fill="none" stroke="#33979C" stroke-width="1.75" stroke-linecap="round" stroke-linejoin="round" points="48.7,44.1 
			49.3,44.1 49.3,43.6 		"/>
		
			<line fill="none" stroke="#33979C" stroke-width="1.75" stroke-linecap="round" stroke-linejoin="round" stroke-dasharray="1.0892,4.3566" x1="49.3" y1="39.2" x2="49.3" y2="30.5"/>
		
			<line fill="none" stroke="#33979C" stroke-width="1.75" stroke-linecap="round" stroke-linejoin="round" x1="49.3" y1="28.3" x2="49.3" y2="27.8"/>
		<g>
			<polygon fill="#33979C" points="55.3,32.7 54.2,33.8 49.3,28.4 44.3,33.8 43.2,32.7 49.3,26.2 			"/>
		</g>
	</g>
</g>
<circle fill="none" stroke="#404146" stroke-width="1.75" stroke-miterlimit="10" cx="46.4" cy="8.7" r="6.5"/>
<path fill="none" stroke="#404146" stroke-width="1.75" stroke-miterlimit="10" d="M36.8,21.6c0-2.7,1.1-5.2,3-6.9"/>
<path fill="none" stroke="#404146" stroke-width="1.75" stroke-miterlimit="10" d="M52.9,14.6c1.8,1.7,3,4.2,3,6.9"/>
<circle fill="none" stroke="#404146" stroke-width="1.75" stroke-miterlimit="10" cx="13.1" cy="36.2" r="6.5"/>
<path fill="none" stroke="#404146" stroke-width="1.75" stroke-miterlimit="10" d="M3.5,49.1c0-2.7,1.1-5.2,3-6.9"/>
<path fill="none" stroke="#404146" stroke-width="1.75" stroke-miterlimit="10" d="M19.6,42.1c1.8,1.7,3,4.2,3,6.9"/>
<g>
	<g>
		
			<line fill="none" stroke="#404146" stroke-width="1.75" stroke-linecap="round" stroke-linejoin="round" x1="33.7" y1="8.4" x2="33.2" y2="8.4"/>
		
			<line fill="none" stroke="#404146" stroke-width="1.75" stroke-linecap="round" stroke-linejoin="round" stroke-dasharray="0.9899,3.9595" x1="29.2" y1="8.4" x2="16.4" y2="8.4"/>
		<polyline fill="none" stroke="#404146" stroke-width="1.75" stroke-linecap="round" stroke-linejoin="round" points="14.4,8.4 
			13.9,8.4 13.9,8.9 		"/>
		
			<line fill="none" stroke="#404146" stroke-width="1.75" stroke-linecap="round" stroke-linejoin="round" stroke-dasharray="1.0892,4.3566" x1="13.9" y1="13.3" x2="13.9" y2="22"/>
		
			<line fill="none" stroke="#404146" stroke-width="1.75" stroke-linecap="round" stroke-linejoin="round" x1="13.9" y1="24.2" x2="13.9" y2="24.7"/>
		<g>
			<polygon fill="#404146" points="7.8,19.8 8.9,18.7 13.9,24.1 18.8,18.7 19.9,19.8 13.9,26.3 			"/>
		</g>
	</g>
</g>
<g>
	<g>
		
			<line fill="none" stroke="#404146" stroke-width="1.75" stroke-linecap="round" stroke-linejoin="round" x1="26.9" y1="43.1" x2="27.4" y2="43.1"/>
		
			<line fill="none" stroke="#404146" stroke-width="1.75" stroke-linecap="round" stroke-linejoin="round" stroke-dasharray="0.9899,3.9595" x1="31.4" y1="43.1" x2="44.3" y2="43.1"/>
		<polyline fill="none" stroke="#404146" stroke-width="1.75" stroke-linecap="round" stroke-linejoin="round" points="46.2,43.1 
			46.8,43.1 46.8,42.6 		"/>
		
			<line fill="none" stroke="#404146" stroke-width="1.75" stroke-linecap="round" stroke-linejoin="round" stroke-dasharray="1.0892,4.3566" x1="46.8" y1="38.2" x2="46.8" y2="29.5"/>
		
			<line fill="none" stroke="#404146" stroke-width="1.75" stroke-linecap="round" stroke-linejoin="round" x1="46.8" y1="27.3" x2="46.8" y2="26.8"/>
		<g>
			<polygon fill="#404146" points="52.8,31.7 51.8,32.8 46.8,27.4 41.8,32.8 40.7,31.7 46.8,25.2 			"/>
		</g>
	</g>
</g>
<text transform="matrix(1 0 0 1 22.902 34.1367)" fill="#404146" font-family="'Helvetica-Bold'" font-size="20">$</text>
</svg>
