<?xml version="1.0" encoding="utf-8"?>
<!-- Generator: Adobe Illustrator 19.2.1, SVG Export Plug-In . SVG Version: 6.00 Build 0)  -->
<svg version="1.1" id="Layer_1" xmlns="http://www.w3.org/2000/svg" xmlns:xlink="http://www.w3.org/1999/xlink" x="0px" y="0px"
	 viewBox="0 0 45.3 46.1" style="enable-background:new 0 0 45.3 46.1;" xml:space="preserve">
<style type="text/css">
	.st0{opacity:0.5;}
	.st1{fill:#FFFFFF;}
	.st2{fill:none;stroke:#404146;stroke-width:2;stroke-miterlimit:10;}
	.st3{fill:none;stroke:#404146;stroke-width:2;stroke-linecap:round;stroke-linejoin:round;stroke-miterlimit:10;}
</style>
<g class="st0">
	<path class="st1" d="M18.3,14.1c-1-1.3-1.6-2.9-1.6-4.6c0-4.1,3.4-7.5,7.5-7.5s7.5,3.4,7.5,7.5c0,1.8-0.6,3.4-1.6,4.6"/>
	<path class="st1" d="M29.8,33.5c1.2,1.3,2,3.1,2,5.1c0,4.1-3.4,7.5-7.5,7.5s-7.5-3.4-7.5-7.5c0-2,0.7-3.7,2-5.1"/>
	<path class="st1" d="M34,18c1.1-0.7,2.4-1,3.8-1c4.1,0,7.5,3.4,7.5,7.5S41.9,32,37.8,32c-1.7,0-3.3-0.6-4.6-1.6"/>
	<path class="st1" d="M14.7,30.9c-1.1,0.6-2.4,1-3.8,1c-4.1,0-7.5-3.4-7.5-7.5s3.4-7.5,7.5-7.5c1.7,0,3.3,0.6,4.6,1.6l1.2,10.8
		C16.8,29.3,15.2,30.7,14.7,30.9z"/>
	<circle class="st1" cx="24.3" cy="23.7" r="10.9"/>
</g>
<g>
	<path class="st2" d="M15.5,13.1c-1-1.3-1.6-2.9-1.6-4.6c0-4.1,3.4-7.5,7.5-7.5s7.5,3.4,7.5,7.5c0,1.8-0.6,3.4-1.6,4.6"/>
	<path class="st2" d="M27,32.5c1.2,1.3,2,3.1,2,5.1c0,4.1-3.4,7.5-7.5,7.5S14,41.7,14,37.6c0-2,0.7-3.7,2-5.1"/>
	<path class="st2" d="M31.2,17c1.1-0.7,2.4-1,3.8-1c4.1,0,7.5,3.4,7.5,7.5S39.1,31,35,31c-1.7,0-3.3-0.6-4.6-1.6"/>
	<path class="st2" d="M8.5,31C4.4,31,1,27.6,1,23.5S4.4,16,8.5,16"/>
	<path class="st2" d="M12.8,29.6c-1.2,0.8-2.7,1.3-4.3,1.3"/>
	<path class="st2" d="M8.5,15.9c1.3,0,2.5,0.3,3.5,0.9"/>
	<circle class="st2" cx="21.5" cy="22.7" r="10.9"/>
</g>
<path class="st3" d="M20.8,16.6c-2.3,0-4.3,1.3-5.2,3.3"/>
<line class="st3" x1="21.5" y1="39" x2="21.5" y2="37.5"/>
<line class="st3" x1="21.5" y1="7.8" x2="21.5" y2="6.3"/>
<line class="st3" x1="5.4" y1="23.7" x2="6.9" y2="23.7"/>
<line class="st3" x1="36.6" y1="23.7" x2="38.1" y2="23.7"/>
</svg>
