<?xml version="1.0" encoding="utf-8"?>
<!-- Generator: Adobe Illustrator 18.1.1, SVG Export Plug-In . SVG Version: 6.00 Build 0)  -->
<!DOCTYPE svg PUBLIC "-//W3C//DTD SVG 1.1//EN" "http://www.w3.org/Graphics/SVG/1.1/DTD/svg11.dtd">
<svg version="1.1" id="Layer_1" xmlns="http://www.w3.org/2000/svg" xmlns:xlink="http://www.w3.org/1999/xlink" x="0px" y="0px"
	 viewBox="0 0 60.7 53" enable-background="new 0 0 60.7 53" xml:space="preserve">
<g opacity="0.5">
	
		<polygon fill="none" stroke="#309799" stroke-width="1.6112" stroke-linecap="round" stroke-linejoin="round" stroke-miterlimit="10" points="
		23.8,50.5 9,44.2 9,4.4 23.8,10.2 	"/>
	
		<polygon fill="none" stroke="#309799" stroke-width="1.6112" stroke-linecap="round" stroke-linejoin="round" stroke-miterlimit="10" points="
		53.5,50.5 38.7,44.2 38.7,4.4 53.5,10.2 	"/>
	
		<polygon fill="none" stroke="#309799" stroke-width="1.6112" stroke-linecap="round" stroke-linejoin="round" stroke-miterlimit="10" points="
		23.8,50.5 38.7,44.2 38.7,4.4 23.8,10.2 	"/>
	<g>
		
			<line fill="none" stroke="#309799" stroke-width="1.401" stroke-linecap="round" stroke-linejoin="round" stroke-miterlimit="10" x1="18.9" y1="12" x2="12.2" y2="18.7"/>
		
			<line fill="none" stroke="#309799" stroke-width="1.401" stroke-linecap="round" stroke-linejoin="round" stroke-miterlimit="10" x1="12.2" y1="12" x2="18.9" y2="18.7"/>
	</g>
	<g>
		
			<line fill="none" stroke="#309799" stroke-width="1.401" stroke-linecap="round" stroke-linejoin="round" stroke-miterlimit="10" x1="50.3" y1="23.6" x2="43.6" y2="30.3"/>
		
			<line fill="none" stroke="#309799" stroke-width="1.401" stroke-linecap="round" stroke-linejoin="round" stroke-miterlimit="10" x1="43.6" y1="23.6" x2="50.3" y2="30.3"/>
	</g>
	<g>
		<g>
			<path fill="none" stroke="#309799" stroke-width="1.75" stroke-linecap="round" stroke-linejoin="round" d="M22.5,18.1
				c0,0,0.1,0,0.4,0.1"/>
			
				<path fill="none" stroke="#309799" stroke-width="1.75" stroke-linecap="round" stroke-linejoin="round" stroke-dasharray="0.7725,3.0898" d="
				M25.8,19.1c2.3,1.2,4.4,3.8,1.6,9.1c-1.9,3.5,5,12.6,12.9,6.3"/>
			<path fill="none" stroke="#309799" stroke-width="1.75" stroke-linecap="round" stroke-linejoin="round" d="M41.5,33.4
				c0.1-0.1,0.2-0.2,0.3-0.3"/>
			<g>
				<polygon fill="#309799" points="41.9,40.8 40.4,40.6 41.2,33.3 33.9,33.1 33.9,31.6 42.8,31.9 				"/>
			</g>
		</g>
	</g>
</g>
<polygon fill="none" stroke="#404146" stroke-width="1.6112" stroke-linecap="round" stroke-linejoin="round" stroke-miterlimit="10" points="
	22,48.6 7.2,42.3 7.2,2.4 22,8.3 "/>
<polygon fill="none" stroke="#404146" stroke-width="1.6112" stroke-linecap="round" stroke-linejoin="round" stroke-miterlimit="10" points="
	51.7,48.6 36.9,42.3 36.9,2.4 51.7,8.3 "/>
<polygon fill="none" stroke="#404146" stroke-width="1.6112" stroke-linecap="round" stroke-linejoin="round" stroke-miterlimit="10" points="
	22,48.6 36.9,42.3 36.9,2.4 22,8.3 "/>
<g>
	
		<line fill="none" stroke="#404146" stroke-width="1.401" stroke-linecap="round" stroke-linejoin="round" stroke-miterlimit="10" x1="17.1" y1="10.1" x2="10.4" y2="16.7"/>
	
		<line fill="none" stroke="#404146" stroke-width="1.401" stroke-linecap="round" stroke-linejoin="round" stroke-miterlimit="10" x1="10.4" y1="10.1" x2="17.1" y2="16.7"/>
</g>
<g>
	
		<line fill="none" stroke="#404146" stroke-width="1.401" stroke-linecap="round" stroke-linejoin="round" stroke-miterlimit="10" x1="48.5" y1="21.7" x2="41.8" y2="28.4"/>
	
		<line fill="none" stroke="#404146" stroke-width="1.401" stroke-linecap="round" stroke-linejoin="round" stroke-miterlimit="10" x1="41.8" y1="21.7" x2="48.5" y2="28.4"/>
</g>
<g>
	<g>
		<path fill="none" stroke="#404146" stroke-width="1.75" stroke-linecap="round" stroke-linejoin="round" d="M21.1,16.8
			c0,0,0.1,0,0.4,0.1"/>
		
			<path fill="none" stroke="#404146" stroke-width="1.75" stroke-linecap="round" stroke-linejoin="round" stroke-dasharray="0.7725,3.0898" d="
			M24.4,17.9c2.3,1.2,4.4,3.8,1.6,9.1c-1.9,3.5,5,12.6,12.9,6.3"/>
		<path fill="none" stroke="#404146" stroke-width="1.75" stroke-linecap="round" stroke-linejoin="round" d="M40.1,32.2
			c0.1-0.1,0.2-0.2,0.3-0.3"/>
		<g>
			<polygon fill="#404146" points="40.5,39.6 39,39.4 39.8,32.1 32.5,31.9 32.5,30.4 41.4,30.7 			"/>
		</g>
	</g>
</g>
</svg>
