<?xml version="1.0" encoding="utf-8"?>
<!-- Generator: Adobe Illustrator 19.2.1, SVG Export Plug-In . SVG Version: 6.00 Build 0)  -->
<svg version="1.1" id="Layer_1" xmlns="http://www.w3.org/2000/svg" xmlns:xlink="http://www.w3.org/1999/xlink" x="0px" y="0px"
	 viewBox="0 0 49.5 51.1" style="enable-background:new 0 0 49.5 51.1;" xml:space="preserve">
<style type="text/css">
	.st0{opacity:0.5;fill:#FFFFFF;enable-background:new    ;}
	.st1{opacity:0.5;fill:#FFFFFF;stroke:#FFFFFF;stroke-width:2.0711;stroke-miterlimit:10;enable-background:new    ;}
	.st2{opacity:0.5;}
	.st3{fill:none;stroke:#FFFFFF;stroke-width:2.0711;stroke-linecap:round;stroke-linejoin:round;stroke-miterlimit:10;}
	.st4{fill:none;stroke:#404146;stroke-width:2;stroke-miterlimit:10;}
	.st5{fill:none;stroke:#404146;stroke-width:2;stroke-linecap:round;stroke-linejoin:round;stroke-miterlimit:10;}
</style>
<path class="st0" d="M19.5,37.5v6.9c0,3.7,3,6.7,6.7,6.7l0,0c3.7,0,6.7-3,6.7-6.7v-8.6C32.9,35.8,21.8,38.9,19.5,37.5"/>
<circle class="st1" cx="25.9" cy="25.7" r="13.5"/>
<g class="st2">
	<line class="st3" x1="42.3" y1="22.7" x2="48.5" y2="22.7"/>
	<line class="st3" x1="39.4" y1="14.7" x2="44.8" y2="11.6"/>
	<line class="st3" x1="33.4" y1="10.1" x2="36.5" y2="4.7"/>
	<line class="st3" x1="2.1" y1="22.7" x2="8.3" y2="22.7"/>
	<line class="st3" x1="25.1" y1="8.3" x2="25.1" y2="2"/>
	<line class="st3" x1="10.6" y1="15.8" x2="5.2" y2="12.7"/>
	<line class="st3" x1="16.6" y1="10.1" x2="13.5" y2="4.7"/>
</g>
<path class="st4" d="M31,36.3v7c0,3.7-3,6.7-6.7,6.7l0,0c-3.7,0-6.7-3-6.7-6.7v-7"/>
<circle class="st4" cx="24.3" cy="24.6" r="13.5"/>
<line class="st4" x1="17.7" y1="43.7" x2="31" y2="43.7"/>
<path class="st5" d="M30.4,23.2c0-1.7-1.4-3.1-3.1-3.1c-1.3,0-2.4,0.8-2.9,1.9c-0.5-1.1-1.6-1.9-2.9-1.9c-1.7,0-3.1,1.4-3.1,3.1
	c0,1,0.5,1.9,1.3,2.5l4.8,4.8c0,0,5.2-5.2,5.3-5.4C29.6,25.1,30.4,23.9,30.4,23.2z"/>
<g>
	<line class="st5" x1="41.2" y1="21.7" x2="47.5" y2="21.7"/>
	<line class="st5" x1="38.4" y1="13.7" x2="43.8" y2="10.6"/>
	<line class="st5" x1="32.4" y1="9.1" x2="35.5" y2="3.7"/>
	<line class="st5" x1="1" y1="21.7" x2="7.3" y2="21.7"/>
	<line class="st5" x1="24.1" y1="7.2" x2="24.1" y2="1"/>
	<line class="st5" x1="9.6" y1="14.7" x2="4.2" y2="11.6"/>
	<line class="st5" x1="15.6" y1="9.1" x2="12.5" y2="3.7"/>
</g>
</svg>
