<?xml version="1.0" encoding="utf-8"?>
<!-- Generator: Adobe Illustrator 18.1.1, SVG Export Plug-In . SVG Version: 6.00 Build 0)  -->
<!DOCTYPE svg PUBLIC "-//W3C//DTD SVG 1.1//EN" "http://www.w3.org/Graphics/SVG/1.1/DTD/svg11.dtd">
<svg version="1.1" id="Layer_1" xmlns="http://www.w3.org/2000/svg" xmlns:xlink="http://www.w3.org/1999/xlink" x="0px" y="0px"
	 viewBox="0 0 60.7 53" enable-background="new 0 0 60.7 53" xml:space="preserve">
<polygon opacity="0.5" fill="#FFFFFF" points="34.1,4.5 37.1,2.6 38.1,6.1 41.5,5.6 41.5,9.1 44.6,9.9 43.1,13.1 45.7,15.5 
	43.2,17.5 44.8,20.4 41.3,21.5 41.9,25.3 38.2,24.5 37.6,28.1 34.1,25.7 32.1,29.6 29.9,25.8 26.6,28.6 26.3,24.1 22.2,25.5 
	23.2,21.3 19.1,21 21.5,17.5 18,15.5 21.2,13.3 19,10.1 22.8,9.3 22.2,5.7 25.8,6.1 26.6,2.6 29.9,4.8 32.1,1.4 "/>
<path opacity="0.5" fill="#FFFFFF" d="M25.4,33.1v16.7l6.6-4.3l6.6,4.6v-17C38.6,33.1,32.1,37.9,25.4,33.1z"/>
<circle fill="none" stroke="#404146" stroke-width="2" stroke-miterlimit="10" cx="29.9" cy="15.5" r="6.3"/>
<polygon fill="none" stroke="#404146" stroke-width="1.75" stroke-linecap="round" stroke-linejoin="round" stroke-miterlimit="10" points="
	32.1,4.5 35.1,2.6 36.1,6.1 39.5,5.6 39.5,9.1 42.6,9.9 41.1,13.1 43.7,15.5 41.2,17.5 42.8,20.4 39.3,21.5 39.9,25.3 36.2,24.5 
	35.6,28.1 32.1,25.7 30.1,29.6 27.9,25.8 24.6,28.6 24.3,24.1 20.2,25.5 21.2,21.3 17.1,21 19.5,17.5 16,15.5 19.2,13.3 17,10.1 
	20.8,9.3 20.2,5.7 23.8,6.1 24.6,2.6 27.9,4.8 30.1,1.4 "/>
<path fill="none" stroke="#404146" stroke-width="1.75" stroke-miterlimit="10" d="M23.6,33.1v16.7l6.6-4.3l6.6,4.6v-17
	C36.8,33.1,30.3,37.9,23.6,33.1z"/>
</svg>
