<?xml version="1.0" encoding="utf-8"?>
<!-- Generator: Adobe Illustrator 19.2.1, SVG Export Plug-In . SVG Version: 6.00 Build 0)  -->
<svg version="1.1" id="Layer_1" xmlns="http://www.w3.org/2000/svg" xmlns:xlink="http://www.w3.org/1999/xlink" x="0px" y="0px"
	 viewBox="0 0 56.9 47.5" style="enable-background:new 0 0 56.9 47.5;" xml:space="preserve">
<style type="text/css">
	.st0{opacity:0.5;}
	.st1{fill:none;stroke:#32979B;stroke-width:1.75;stroke-linecap:round;stroke-linejoin:round;stroke-miterlimit:10;}
	.st2{fill:none;stroke:#32979B;stroke-width:1.75;stroke-miterlimit:10;}
	.st3{fill:none;stroke:#404146;stroke-width:1.75;stroke-linecap:round;stroke-linejoin:round;stroke-miterlimit:10;}
</style>
<g class="st0">
	<polygon class="st1" points="44.8,21.6 28.5,24.1 25.5,12.8 40.8,6.7 	"/>
	<polygon class="st2" points="28.2,22.9 12,25.3 10.4,19.2 25.7,13.4 	"/>
	<rect x="4.8" y="19" transform="matrix(0.9662 -0.2576 0.2576 0.9662 -5.9335 2.5673)" class="st1" width="4.1" height="9.8"/>
	<path class="st1" d="M43.1,3.2c5.5-1.5,11.2,1.8,12.6,7.3c1.5,5.5-1.8,11.2-7.3,12.6L43.1,3.2z"/>
	<line class="st1" x1="28" y1="26.9" x2="35.1" y2="46.6"/>
	<line class="st1" x1="27.9" y1="26.9" x2="20.8" y2="46.6"/>
</g>
<g>
	<polygon class="st3" points="42.1,19.7 25.9,22.1 22.9,10.8 38.1,4.8 	"/>
	<polygon class="st3" points="25.6,21 9.3,23.4 7.7,17.3 23,11.5 	"/>
	<rect x="2.1" y="17" transform="matrix(0.9662 -0.2576 0.2576 0.9662 -5.5122 1.8012)" class="st3" width="4.1" height="9.8"/>
	<path class="st3" d="M40.4,1.2C45.9-0.3,51.6,3,53,8.5c1.5,5.5-1.8,11.2-7.3,12.6L40.4,1.2z"/>
	<path class="st3" d="M45.8,4.9c1.9,1,3.5,2.6,4.4,4.7"/>
	<line class="st3" x1="25.3" y1="24.9" x2="32.4" y2="44.7"/>
	<line class="st3" x1="25.2" y1="24.9" x2="18.1" y2="44.7"/>
</g>
</svg>
