<?xml version="1.0" encoding="UTF-8" standalone="no"?>
<svg width="184px" height="52px" viewBox="0 0 184 52" version="1.1" xmlns="http://www.w3.org/2000/svg" xmlns:xlink="http://www.w3.org/1999/xlink">
    <!-- Generator: Sketch 44.1 (41455) - http://www.bohemiancoding.com/sketch -->
    <title>Group 46</title>
    <desc>Created with Sketch.</desc>
    <defs></defs>
    <g id="Page-1" stroke="none" stroke-width="1" fill="none" fill-rule="evenodd">
        <g id="Team-Take-#1" transform="translate(-80.000000, -19.000000)">
            <g id="Group-46" transform="translate(80.000000, 19.000000)">
                <path d="M64.634,19.526 C64.634,20.1546698 64.7413323,20.6913311 64.956,21.136 C65.1706677,21.5806689 65.4696647,21.9448319 65.853,22.2285 C66.2363352,22.5121681 66.6771642,22.719166 67.1755,22.8495 C67.6738358,22.979834 68.2143304,23.045 68.797,23.045 C69.4256698,23.045 69.9623311,22.9721674 70.407,22.8265 C70.8516689,22.6808326 71.2119986,22.4930012 71.488,22.263 C71.7640014,22.0329988 71.9633327,21.7685015 72.086,21.4695 C72.2086673,21.1704985 72.27,20.8676682 72.27,20.561 C72.27,19.9323302 72.1281681,19.4685015 71.8445,19.1695 C71.5608319,18.8704985 71.250335,18.6596673 70.913,18.537 C70.3303304,18.3223323 69.6518372,18.1191676 68.8775,17.9275 C68.1031628,17.7358324 67.1486723,17.4866682 66.014,17.18 C65.3086631,16.9959991 64.722169,16.7545015 64.2545,16.4555 C63.786831,16.1564985 63.4150014,15.8230018 63.139,15.455 C62.8629986,15.0869982 62.6675006,14.6960021 62.5525,14.282 C62.4374994,13.8679979 62.38,13.4463355 62.38,13.017 C62.38,12.1889959 62.5524983,11.4721697 62.8975,10.8665 C63.2425017,10.2608303 63.6986638,9.75866866 64.266,9.36 C64.8333362,8.96133134 65.4773297,8.66616762 66.198,8.4745 C66.9186703,8.28283237 67.6469963,8.187 68.383,8.187 C69.241671,8.187 70.0504962,8.29816555 70.8095,8.5205 C71.5685038,8.74283444 72.2354971,9.07633111 72.8105,9.521 C73.3855029,9.96566889 73.841665,10.5138301 74.179,11.1655 C74.516335,11.8171699 74.685,12.572329 74.685,13.431 L71.81,13.431 C71.733333,12.3729947 71.3730032,11.6255022 70.729,11.1885 C70.0849968,10.7514978 69.2646716,10.533 68.268,10.533 C67.930665,10.533 67.5856684,10.5674997 67.233,10.6365 C66.8803316,10.7055003 66.5583348,10.8204992 66.267,10.9815 C65.9756652,11.1425008 65.7341676,11.3609986 65.5425,11.637 C65.3508324,11.9130014 65.255,12.2579979 65.255,12.672 C65.255,13.2546696 65.4351649,13.7108317 65.7955,14.0405 C66.1558351,14.3701683 66.6273304,14.6193325 67.21,14.788 C67.2713336,14.8033334 67.5128312,14.8684994 67.9345,14.9835 C68.3561688,15.0985006 68.8276641,15.2249993 69.349,15.363 C69.8703359,15.5010007 70.3801642,15.635166 70.8785,15.7655 C71.3768358,15.895834 71.7333323,15.9916664 71.948,16.053 C72.4846694,16.2216675 72.9523313,16.4516652 73.351,16.743 C73.7496687,17.0343348 74.0831653,17.3678315 74.3515,17.7435 C74.6198347,18.1191685 74.819166,18.5216645 74.9495,18.951 C75.079834,19.3803355 75.145,19.8096645 75.145,20.239 C75.145,21.1590046 74.9571685,21.9448301 74.5815,22.5965 C74.2058315,23.2481699 73.7113364,23.7809979 73.098,24.195 C72.4846636,24.6090021 71.7870039,24.9118324 71.005,25.1035 C70.2229961,25.2951676 69.4256707,25.391 68.613,25.391 C67.677662,25.391 66.7960041,25.2760011 65.968,25.046 C65.1399959,24.8159988 64.4193364,24.4633357 63.806,23.988 C63.1926636,23.5126643 62.7020018,22.9031704 62.334,22.1595 C61.9659982,21.4158296 61.7743334,20.5380051 61.759,19.526 L64.634,19.526 Z M77.6487142,8.578 L90.9427142,8.578 L90.9427142,11.062 L85.7217142,11.062 L85.7217142,25 L82.8467142,25 L82.8467142,11.062 L77.6487142,11.062 L77.6487142,8.578 Z M94.4124285,8.578 L106.234428,8.578 L106.234428,11.062 L97.2874285,11.062 L97.2874285,15.363 L105.567428,15.363 L105.567428,17.709 L97.2874285,17.709 L97.2874285,22.516 L106.395428,22.516 L106.395428,25 L94.4124285,25 L94.4124285,8.578 Z M110.463143,8.578 L118.306143,8.578 C120.115485,8.578 121.472472,8.96899609 122.377143,9.751 C123.281814,10.5330039 123.734143,11.6216597 123.734143,13.017 C123.734143,13.7990039 123.619144,14.4468308 123.389143,14.9605 C123.159142,15.4741692 122.890811,15.8881651 122.584143,16.2025 C122.277475,16.5168349 121.974644,16.7429993 121.675643,16.881 C121.376641,17.0190007 121.158143,17.1109998 121.020143,17.157 L121.020143,17.203 C121.265477,17.2336668 121.529975,17.3103327 121.813643,17.433 C122.097311,17.5556673 122.361808,17.7511653 122.607143,18.0195 C122.852477,18.2878347 123.055642,18.6366645 123.216643,19.066 C123.377644,19.4953355 123.458143,20.0319968 123.458143,20.676 C123.458143,21.6420048 123.530975,22.5198294 123.676643,23.3095 C123.82231,24.0991706 124.048475,24.662665 124.355143,25 L121.273143,25 C121.058475,24.6473316 120.931976,24.2563355 120.893643,23.827 C120.855309,23.3976645 120.836143,22.9836687 120.836143,22.585 C120.836143,21.8336629 120.790143,21.1858361 120.698143,20.6415 C120.606142,20.0971639 120.437477,19.6448351 120.192143,19.2845 C119.946808,18.9241649 119.613312,18.6596675 119.191643,18.491 C118.769974,18.3223325 118.229479,18.238 117.570143,18.238 L113.338143,18.238 L113.338143,25 L110.463143,25 L110.463143,8.578 Z M113.338143,16.053 L118.053143,16.053 C118.973147,16.053 119.670807,15.8345022 120.146143,15.3975 C120.621478,14.9604978 120.859143,14.3050044 120.859143,13.431 C120.859143,12.9096641 120.782477,12.4841683 120.629143,12.1545 C120.475809,11.8248317 120.264977,11.5680009 119.996643,11.384 C119.728308,11.1999991 119.421644,11.0773336 119.076643,11.016 C118.731641,10.9546664 118.375145,10.924 118.007143,10.924 L113.338143,10.924 L113.338143,16.053 Z M128.215857,8.578 L131.090857,8.578 L131.090857,22.516 L139.439857,22.516 L139.439857,25 L128.215857,25 L128.215857,8.578 Z M142.978571,8.578 L145.853571,8.578 L145.853571,25 L142.978571,25 L142.978571,8.578 Z M150.818285,8.578 L153.854285,8.578 L161.352285,20.676 L161.398285,20.676 L161.398285,8.578 L164.135285,8.578 L164.135285,25 L161.099285,25 L153.624285,12.925 L153.555285,12.925 L153.555285,25 L150.818285,25 L150.818285,8.578 Z M183.429,25 L181.589,25 L181.152,23.068 C180.385329,23.9420044 179.61867,24.547665 178.852,24.885 C178.085329,25.222335 177.203671,25.391 176.207,25.391 C174.980327,25.391 173.880171,25.1648356 172.9065,24.7125 C171.932828,24.2601644 171.10867,23.6430039 170.434,22.861 C169.75933,22.0789961 169.241835,21.1666719 168.8815,20.124 C168.521165,19.0813281 168.341,17.9696726 168.341,16.789 C168.341,15.6236608 168.521165,14.5196719 168.8815,13.477 C169.241835,12.4343281 169.75933,11.5220039 170.434,10.74 C171.10867,9.95799609 171.932828,9.3370023 172.9065,8.877 C173.880171,8.4169977 174.980327,8.187 176.207,8.187 C177.096337,8.187 177.943496,8.30583214 178.7485,8.5435 C179.553504,8.78116785 180.27033,9.13383099 180.899,9.6015 C181.52767,10.069169 182.048998,10.6556631 182.463,11.361 C182.877002,12.0663369 183.137666,12.8789954 183.245,13.799 L180.439,13.799 C180.362333,13.2623307 180.197501,12.7908354 179.9445,12.3845 C179.691498,11.9781646 179.373335,11.6370014 178.99,11.361 C178.606664,11.0849986 178.177335,10.8780007 177.702,10.74 C177.226664,10.6019993 176.728336,10.533 176.207,10.533 C175.332995,10.533 174.577836,10.7093316 173.9415,11.062 C173.305163,11.4146684 172.787668,11.8861637 172.389,12.4765 C171.990331,13.0668363 171.695167,13.7376629 171.5035,14.489 C171.311832,15.2403371 171.216,16.0069961 171.216,16.789 C171.216,17.5710039 171.311832,18.3376629 171.5035,19.089 C171.695167,19.8403371 171.990331,20.5111637 172.389,21.1015 C172.787668,21.6918363 173.305163,22.1633316 173.9415,22.516 C174.577836,22.8686684 175.332995,23.045 176.207,23.045 C176.943003,23.0603334 177.594664,22.964501 178.162,22.7575 C178.729336,22.550499 179.208498,22.251502 179.5995,21.8605 C179.990502,21.469498 180.285665,20.9903362 180.485,20.423 C180.684334,19.8556638 180.791666,19.2270034 180.807,18.537 L176.437,18.537 L176.437,16.352 L183.429,16.352 L183.429,25 Z M70.131,43.654 L70.085,43.654 C69.9469993,44.0066684 69.747668,44.3401651 69.487,44.6545 C69.226332,44.9688349 68.9081685,45.2486654 68.5325,45.494 C68.1568315,45.7393346 67.7313357,45.9309993 67.256,46.069 C66.7806643,46.2070007 66.2593362,46.276 65.692,46.276 C64.4346604,46.276 63.4610034,46.0038361 62.771,45.4595 C62.0809966,44.9151639 61.736,44.0756723 61.736,42.941 C61.736,42.2509965 61.8739986,41.6875022 62.15,41.2505 C62.4260014,40.8134978 62.7748312,40.4685013 63.1965,40.2155 C63.6181688,39.9624987 64.0858308,39.7823339 64.5995,39.675 C65.1131692,39.5676661 65.6076643,39.4910002 66.083,39.445 L67.44,39.33 C68.0686698,39.2839998 68.5631649,39.2111672 68.9235,39.1115 C69.2838351,39.0118328 69.5559991,38.8738342 69.74,38.6975 C69.9240009,38.5211658 70.0389998,38.2950014 70.085,38.019 C70.1310002,37.7429986 70.154,37.3980021 70.154,36.984 C70.154,36.6619984 70.0926673,36.3630014 69.97,36.087 C69.8473327,35.8109986 69.655668,35.5656677 69.395,35.351 C69.134332,35.1363323 68.7970021,34.9676673 68.383,34.845 C67.9689979,34.7223327 67.463003,34.661 66.865,34.661 C65.8069947,34.661 64.9521699,34.9216641 64.3005,35.443 C63.6488301,35.9643359 63.2923336,36.7539947 63.231,37.812 L62.357,37.812 C62.4183336,36.5086601 62.8361628,35.5311699 63.6105,34.8795 C64.3848372,34.2278301 65.4849929,33.902 66.911,33.902 C68.3370071,33.902 69.3758301,34.1818305 70.0275,34.7415 C70.6791699,35.3011695 71.005,36.0333288 71.005,36.938 L71.005,43.815 C71.005,43.9836675 71.0088333,44.1523325 71.0165,44.321 C71.0241667,44.4896675 71.0509998,44.6429993 71.097,44.781 C71.1430002,44.9190007 71.2196661,45.0301662 71.327,45.1145 C71.4343339,45.1988338 71.5876657,45.241 71.787,45.241 C71.9403341,45.241 72.1549986,45.2180002 72.431,45.172 L72.431,45.908 C72.2009989,45.9693336 71.9633346,46 71.718,46 C71.3653316,46 71.085501,45.9540005 70.8785,45.862 C70.671499,45.7699995 70.5143339,45.6473341 70.407,45.494 C70.2996661,45.3406659 70.2268335,45.160501 70.1885,44.9535 C70.1501665,44.746499 70.131,44.5203346 70.131,44.275 L70.131,43.654 Z M70.131,39.284 C69.9163323,39.544668 69.5905022,39.7209995 69.1535,39.813 C68.7164978,39.9050005 68.2296693,39.9739998 67.693,40.02 L66.221,40.158 C65.7916645,40.2040002 65.3623355,40.2691662 64.933,40.3535 C64.5036645,40.4378338 64.1165017,40.5796657 63.7715,40.779 C63.4264983,40.9783343 63.1466677,41.2504983 62.932,41.5955 C62.7173323,41.9405017 62.61,42.3889972 62.61,42.941 C62.61,43.8150044 62.8859972,44.4628312 63.438,44.8845 C63.9900028,45.3061688 64.7489952,45.517 65.715,45.517 C66.7116716,45.517 67.5013304,45.3368351 68.084,44.9765 C68.6666696,44.6161649 69.1113318,44.202169 69.418,43.7345 C69.7246682,43.266831 69.9201662,42.8145022 70.0045,42.3775 C70.0888338,41.9404978 70.131,41.6453341 70.131,41.492 L70.131,39.284 Z M76.562,42.067 C76.5926668,42.6190028 76.7153323,43.1058312 76.93,43.5275 C77.1446677,43.9491688 77.4244983,44.3094985 77.7695,44.6085 C78.1145017,44.9075015 78.5169977,45.1336659 78.977,45.287 C79.4370023,45.4403341 79.9353306,45.517 80.472,45.517 C80.8553352,45.517 81.2654978,45.4825003 81.7025,45.4135 C82.1395022,45.3444997 82.5458315,45.2180009 82.9215,45.034 C83.2971685,44.8499991 83.6076654,44.5931683 83.853,44.2635 C84.0983346,43.9338317 84.221,43.5160025 84.221,43.01 C84.221,42.3506634 84.0216687,41.852335 83.623,41.515 C83.2243313,41.177665 82.7221697,40.9170009 82.1165,40.733 C81.5108303,40.5489991 80.8591702,40.3995006 80.1615,40.2845 C79.4638298,40.1694994 78.8121697,39.9970012 78.2065,39.767 C77.6008303,39.5369989 77.0986687,39.2111688 76.7,38.7895 C76.3013313,38.3678312 76.102,37.7506707 76.102,36.938 C76.102,36.3553304 76.232332,35.868502 76.493,35.4775 C76.753668,35.086498 77.0871646,34.7760011 77.4935,34.546 C77.8998354,34.3159988 78.3559975,34.1511672 78.862,34.0515 C79.3680025,33.9518328 79.8739975,33.902 80.38,33.902 C80.9933364,33.902 81.5683307,33.9709993 82.105,34.109 C82.6416694,34.2470007 83.105498,34.4693318 83.4965,34.776 C83.887502,35.0826682 84.1941656,35.4736643 84.4165,35.949 C84.6388344,36.4243357 84.75,36.99933 84.75,37.674 L83.876,37.674 C83.876,37.1373307 83.7878342,36.6773352 83.6115,36.294 C83.4351658,35.9106647 83.1898349,35.6001679 82.8755,35.3625 C82.5611651,35.1248321 82.1893355,34.9485006 81.76,34.8335 C81.3306645,34.7184994 80.8706691,34.661 80.38,34.661 C79.9813313,34.661 79.5788354,34.6993329 79.1725,34.776 C78.7661646,34.8526671 78.4020016,34.9829991 78.08,35.167 C77.7579984,35.3510009 77.493501,35.5886652 77.2865,35.88 C77.079499,36.1713348 76.976,36.5239979 76.976,36.938 C76.976,37.4133357 77.0909989,37.7966652 77.321,38.088 C77.5510011,38.3793348 77.8538315,38.6131658 78.2295,38.7895 C78.6051685,38.9658342 79.026831,39.1076661 79.4945,39.215 C79.962169,39.3223339 80.4336643,39.4296661 80.909,39.537 C81.4916696,39.6443339 82.0398308,39.7708326 82.5535,39.9165 C83.0671692,40.0621674 83.5118315,40.2614987 83.8875,40.5145 C84.2631685,40.7675013 84.5583323,41.0933313 84.773,41.492 C84.9876677,41.8906687 85.095,42.3966636 85.095,43.01 C85.095,43.6540032 84.9493348,44.1829979 84.658,44.597 C84.3666652,45.0110021 83.9986689,45.3444987 83.554,45.5975 C83.1093311,45.8505013 82.6148361,46.0268328 82.0705,46.1265 C81.5261639,46.2261672 80.9933359,46.276 80.472,46.276 C79.79733,46.276 79.1725029,46.1878342 78.5975,46.0115 C78.0224971,45.8351658 77.5203355,45.5668351 77.091,45.2065 C76.6616645,44.8461649 76.3243346,44.4053359 76.079,43.884 C75.8336654,43.3626641 75.7033334,42.7570034 75.688,42.067 L76.562,42.067 Z M89.985,42.067 C90.0156668,42.6190028 90.1383323,43.1058312 90.353,43.5275 C90.5676677,43.9491688 90.8474983,44.3094985 91.1925,44.6085 C91.5375017,44.9075015 91.9399977,45.1336659 92.4,45.287 C92.8600023,45.4403341 93.3583306,45.517 93.895,45.517 C94.2783352,45.517 94.6884978,45.4825003 95.1255,45.4135 C95.5625022,45.3444997 95.9688315,45.2180009 96.3445,45.034 C96.7201685,44.8499991 97.0306654,44.5931683 97.276,44.2635 C97.5213346,43.9338317 97.644,43.5160025 97.644,43.01 C97.644,42.3506634 97.4446687,41.852335 97.046,41.515 C96.6473313,41.177665 96.1451697,40.9170009 95.5395,40.733 C94.9338303,40.5489991 94.2821702,40.3995006 93.5845,40.2845 C92.8868298,40.1694994 92.2351697,39.9970012 91.6295,39.767 C91.0238303,39.5369989 90.5216687,39.2111688 90.123,38.7895 C89.7243313,38.3678312 89.525,37.7506707 89.525,36.938 C89.525,36.3553304 89.655332,35.868502 89.916,35.4775 C90.176668,35.086498 90.5101646,34.7760011 90.9165,34.546 C91.3228354,34.3159988 91.7789975,34.1511672 92.285,34.0515 C92.7910025,33.9518328 93.2969975,33.902 93.803,33.902 C94.4163364,33.902 94.9913307,33.9709993 95.528,34.109 C96.0646694,34.2470007 96.528498,34.4693318 96.9195,34.776 C97.310502,35.0826682 97.6171656,35.4736643 97.8395,35.949 C98.0618344,36.4243357 98.173,36.99933 98.173,37.674 L97.299,37.674 C97.299,37.1373307 97.2108342,36.6773352 97.0345,36.294 C96.8581658,35.9106647 96.6128349,35.6001679 96.2985,35.3625 C95.9841651,35.1248321 95.6123355,34.9485006 95.183,34.8335 C94.7536645,34.7184994 94.2936691,34.661 93.803,34.661 C93.4043313,34.661 93.0018354,34.6993329 92.5955,34.776 C92.1891646,34.8526671 91.8250016,34.9829991 91.503,35.167 C91.1809984,35.3510009 90.916501,35.5886652 90.7095,35.88 C90.502499,36.1713348 90.399,36.5239979 90.399,36.938 C90.399,37.4133357 90.5139989,37.7966652 90.744,38.088 C90.9740011,38.3793348 91.2768315,38.6131658 91.6525,38.7895 C92.0281685,38.9658342 92.449831,39.1076661 92.9175,39.215 C93.385169,39.3223339 93.8566643,39.4296661 94.332,39.537 C94.9146696,39.6443339 95.4628308,39.7708326 95.9765,39.9165 C96.4901692,40.0621674 96.9348315,40.2614987 97.3105,40.5145 C97.6861685,40.7675013 97.9813323,41.0933313 98.196,41.492 C98.4106677,41.8906687 98.518,42.3966636 98.518,43.01 C98.518,43.6540032 98.3723348,44.1829979 98.081,44.597 C97.7896652,45.0110021 97.4216689,45.3444987 96.977,45.5975 C96.5323311,45.8505013 96.0378361,46.0268328 95.4935,46.1265 C94.9491639,46.2261672 94.4163359,46.276 93.895,46.276 C93.22033,46.276 92.5955029,46.1878342 92.0205,46.0115 C91.4454971,45.8351658 90.9433355,45.5668351 90.514,45.2065 C90.0846645,44.8461649 89.7473346,44.4053359 89.502,43.884 C89.2566654,43.3626641 89.1263334,42.7570034 89.111,42.067 L89.985,42.067 Z M102.442,40.089 C102.442,39.2456624 102.560832,38.4521704 102.7985,37.7085 C103.036168,36.9648296 103.384998,36.3093362 103.845,35.742 C104.305002,35.1746638 104.87233,34.7261683 105.547,34.3965 C106.22167,34.0668317 106.995996,33.902 107.87,33.902 C108.744004,33.902 109.51833,34.0668317 110.193,34.3965 C110.86767,34.7261683 111.434998,35.1746638 111.895,35.742 C112.355002,36.3093362 112.703832,36.9648296 112.9415,37.7085 C113.179168,38.4521704 113.298,39.2456624 113.298,40.089 C113.298,40.9323375 113.179168,41.7296629 112.9415,42.481 C112.703832,43.2323371 112.355002,43.8878305 111.895,44.4475 C111.434998,45.0071695 110.86767,45.4518317 110.193,45.7815 C109.51833,46.1111683 108.744004,46.276 107.87,46.276 C106.995996,46.276 106.22167,46.1111683 105.547,45.7815 C104.87233,45.4518317 104.305002,45.0071695 103.845,44.4475 C103.384998,43.8878305 103.036168,43.2323371 102.7985,42.481 C102.560832,41.7296629 102.442,40.9323375 102.442,40.089 Z M103.316,40.089 C103.316,40.7943369 103.415666,41.4728301 103.615,42.1245 C103.814334,42.7761699 104.105665,43.3549975 104.489,43.861 C104.872335,44.3670025 105.347664,44.7694985 105.915,45.0685 C106.482336,45.3675015 107.133996,45.517 107.87,45.517 C108.606004,45.517 109.257664,45.3675015 109.825,45.0685 C110.392336,44.7694985 110.867665,44.3670025 111.251,43.861 C111.634335,43.3549975 111.925666,42.7761699 112.125,42.1245 C112.324334,41.4728301 112.424,40.7943369 112.424,40.089 C112.424,39.3836631 112.324334,38.7051699 112.125,38.0535 C111.925666,37.4018301 111.634335,36.8230025 111.251,36.317 C110.867665,35.8109975 110.392336,35.4085015 109.825,35.1095 C109.257664,34.8104985 108.606004,34.661 107.87,34.661 C107.133996,34.661 106.482336,34.8104985 105.915,35.1095 C105.347664,35.4085015 104.872335,35.8109975 104.489,36.317 C104.105665,36.8230025 103.814334,37.4018301 103.615,38.0535 C103.415666,38.7051699 103.316,39.3836631 103.316,40.089 Z M126.606,37.835 C126.56,37.3136641 126.425834,36.8536687 126.2035,36.455 C125.981166,36.0563313 125.693668,35.726668 125.341,35.466 C124.988332,35.205332 124.578169,35.0060007 124.1105,34.868 C123.642831,34.7299993 123.140669,34.661 122.604,34.661 C121.867996,34.661 121.216336,34.8104985 120.649,35.1095 C120.081664,35.4085015 119.606335,35.8071642 119.223,36.3055 C118.839665,36.8038358 118.548334,37.3711635 118.349,38.0075 C118.149666,38.6438365 118.05,39.29933 118.05,39.974 C118.05,40.7713373 118.141999,41.50733 118.326,42.182 C118.510001,42.85667 118.793665,43.4431642 119.177,43.9415 C119.560335,44.4398358 120.035664,44.8269986 120.603,45.103 C121.170336,45.3790014 121.83733,45.517 122.604,45.517 C123.156003,45.517 123.665831,45.4250009 124.1335,45.241 C124.601169,45.0569991 125.015165,44.8040016 125.3755,44.482 C125.735835,44.1599984 126.030999,43.7728356 126.261,43.3205 C126.491001,42.8681644 126.644333,42.3736694 126.721,41.837 L127.595,41.837 C127.503,42.5423369 127.311335,43.1709972 127.02,43.723 C126.728665,44.2750028 126.360669,44.7388315 125.916,45.1145 C125.471331,45.4901685 124.965336,45.7776657 124.398,45.977 C123.830664,46.1763343 123.23267,46.276 122.604,46.276 C121.637995,46.276 120.813837,46.1035017 120.1315,45.7585 C119.449163,45.4134983 118.889502,44.9496696 118.4525,44.367 C118.015498,43.7843304 117.693501,43.1135038 117.4865,42.3545 C117.279499,41.5954962 117.176,40.8020041 117.176,39.974 C117.176,39.1459959 117.294832,38.3640037 117.5325,37.628 C117.770168,36.8919963 118.118998,36.2480028 118.579,35.696 C119.039002,35.1439972 119.60633,34.7070016 120.281,34.385 C120.95567,34.0629984 121.729996,33.902 122.604,33.902 C123.248003,33.902 123.849831,33.9824992 124.4095,34.1435 C124.969169,34.3045008 125.467498,34.5459984 125.9045,34.868 C126.341502,35.1900016 126.697999,35.6001642 126.974,36.0985 C127.250001,36.5968358 127.418666,37.1756634 127.48,37.835 L126.606,37.835 Z M132.209,31.947 L132.209,29.578 L133.083,29.578 L133.083,31.947 L132.209,31.947 Z M132.209,46 L132.209,34.178 L133.083,34.178 L133.083,46 L132.209,46 Z M146.069,43.654 L146.023,43.654 C145.884999,44.0066684 145.685668,44.3401651 145.425,44.6545 C145.164332,44.9688349 144.846169,45.2486654 144.4705,45.494 C144.094831,45.7393346 143.669336,45.9309993 143.194,46.069 C142.718664,46.2070007 142.197336,46.276 141.63,46.276 C140.37266,46.276 139.399003,46.0038361 138.709,45.4595 C138.018997,44.9151639 137.674,44.0756723 137.674,42.941 C137.674,42.2509965 137.811999,41.6875022 138.088,41.2505 C138.364001,40.8134978 138.712831,40.4685013 139.1345,40.2155 C139.556169,39.9624987 140.023831,39.7823339 140.5375,39.675 C141.051169,39.5676661 141.545664,39.4910002 142.021,39.445 L143.378,39.33 C144.00667,39.2839998 144.501165,39.2111672 144.8615,39.1115 C145.221835,39.0118328 145.493999,38.8738342 145.678,38.6975 C145.862001,38.5211658 145.977,38.2950014 146.023,38.019 C146.069,37.7429986 146.092,37.3980021 146.092,36.984 C146.092,36.6619984 146.030667,36.3630014 145.908,36.087 C145.785333,35.8109986 145.593668,35.5656677 145.333,35.351 C145.072332,35.1363323 144.735002,34.9676673 144.321,34.845 C143.906998,34.7223327 143.401003,34.661 142.803,34.661 C141.744995,34.661 140.89017,34.9216641 140.2385,35.443 C139.58683,35.9643359 139.230334,36.7539947 139.169,37.812 L138.295,37.812 C138.356334,36.5086601 138.774163,35.5311699 139.5485,34.8795 C140.322837,34.2278301 141.422993,33.902 142.849,33.902 C144.275007,33.902 145.31383,34.1818305 145.9655,34.7415 C146.61717,35.3011695 146.943,36.0333288 146.943,36.938 L146.943,43.815 C146.943,43.9836675 146.946833,44.1523325 146.9545,44.321 C146.962167,44.4896675 146.989,44.6429993 147.035,44.781 C147.081,44.9190007 147.157666,45.0301662 147.265,45.1145 C147.372334,45.1988338 147.525666,45.241 147.725,45.241 C147.878334,45.241 148.092999,45.2180002 148.369,45.172 L148.369,45.908 C148.138999,45.9693336 147.901335,46 147.656,46 C147.303332,46 147.023501,45.9540005 146.8165,45.862 C146.609499,45.7699995 146.452334,45.6473341 146.345,45.494 C146.237666,45.3406659 146.164834,45.160501 146.1265,44.9535 C146.088166,44.746499 146.069,44.5203346 146.069,44.275 L146.069,43.654 Z M146.069,39.284 C145.854332,39.544668 145.528502,39.7209995 145.0915,39.813 C144.654498,39.9050005 144.167669,39.9739998 143.631,40.02 L142.159,40.158 C141.729665,40.2040002 141.300335,40.2691662 140.871,40.3535 C140.441665,40.4378338 140.054502,40.5796657 139.7095,40.779 C139.364498,40.9783343 139.084668,41.2504983 138.87,41.5955 C138.655332,41.9405017 138.548,42.3889972 138.548,42.941 C138.548,43.8150044 138.823997,44.4628312 139.376,44.8845 C139.928003,45.3061688 140.686995,45.517 141.653,45.517 C142.649672,45.517 143.43933,45.3368351 144.022,44.9765 C144.60467,44.6161649 145.049332,44.202169 145.356,43.7345 C145.662668,43.266831 145.858166,42.8145022 145.9425,42.3775 C146.026834,41.9404978 146.069,41.6453341 146.069,41.492 L146.069,39.284 Z M156.433,34.937 L153.857,34.937 L153.857,43.194 C153.857,43.6693357 153.910666,44.0449986 154.018,44.321 C154.125334,44.5970014 154.290166,44.8078326 154.5125,44.9535 C154.734834,45.0991674 155.003165,45.1873332 155.3175,45.218 C155.631835,45.2486668 155.995998,45.2563334 156.41,45.241 L156.41,46 C155.965331,46.0306668 155.532169,46.0268335 155.1105,45.9885 C154.688831,45.9501665 154.317002,45.8351676 153.995,45.6435 C153.672998,45.4518324 153.416168,45.1643352 153.2245,44.781 C153.032832,44.3976647 152.952333,43.86867 152.983,43.194 L152.983,34.937 L150.798,34.937 L150.798,34.178 L152.983,34.178 L152.983,30.498 L153.857,30.498 L153.857,34.178 L156.433,34.178 L156.433,34.937 Z M160.426,40.204 L160.426,40.342 C160.426,41.0320034 160.517999,41.6913302 160.702,42.32 C160.886001,42.9486698 161.158165,43.5006643 161.5185,43.976 C161.878835,44.4513357 162.331164,44.8269986 162.8755,45.103 C163.419836,45.3790014 164.05233,45.517 164.773,45.517 C165.953673,45.517 166.888997,45.2065031 167.579,44.5855 C168.269003,43.9644969 168.744332,43.1020055 169.005,41.998 L169.879,41.998 C169.618332,43.3780069 169.054838,44.4359963 168.1885,45.172 C167.322162,45.9080037 166.176007,46.276 164.75,46.276 C163.875996,46.276 163.11317,46.1188349 162.4615,45.8045 C161.80983,45.4901651 161.265502,45.0608361 160.8285,44.5165 C160.391498,43.9721639 160.065668,43.3281704 159.851,42.5845 C159.636332,41.8408296 159.529,41.039671 159.529,40.181 C159.529,39.3529959 159.640166,38.5595038 159.8625,37.8005 C160.084834,37.0414962 160.418331,36.3745029 160.863,35.7995 C161.307669,35.2244971 161.863497,34.7645017 162.5305,34.4195 C163.197503,34.0744983 163.983329,33.902 164.888,33.902 C165.716004,33.902 166.448163,34.0553318 167.0845,34.362 C167.720837,34.6686682 168.253665,35.0864974 168.683,35.6155 C169.112335,36.1445026 169.438166,36.7578298 169.6605,37.4555 C169.882834,38.1531702 169.994,38.9006627 169.994,39.698 C169.994,39.774667 169.990167,39.8628328 169.9825,39.9625 C169.974833,40.0621672 169.971,40.1426664 169.971,40.204 L160.426,40.204 Z M169.097,39.445 C169.066333,38.8009968 168.959001,38.1915029 168.775,37.6165 C168.590999,37.0414971 168.318835,36.5355022 167.9585,36.0985 C167.598165,35.6614978 167.161169,35.312668 166.6475,35.052 C166.133831,34.791332 165.547337,34.661 164.888,34.661 C164.182663,34.661 163.561669,34.7951653 163.025,35.0635 C162.488331,35.3318347 162.036002,35.6844978 161.668,36.1215 C161.299998,36.5585022 161.016334,37.0683304 160.817,37.651 C160.617666,38.2336696 160.495,38.8316636 160.449,39.445 L169.097,39.445 Z M174.792,42.067 C174.822667,42.6190028 174.945332,43.1058312 175.16,43.5275 C175.374668,43.9491688 175.654498,44.3094985 175.9995,44.6085 C176.344502,44.9075015 176.746998,45.1336659 177.207,45.287 C177.667002,45.4403341 178.165331,45.517 178.702,45.517 C179.085335,45.517 179.495498,45.4825003 179.9325,45.4135 C180.369502,45.3444997 180.775831,45.2180009 181.1515,45.034 C181.527169,44.8499991 181.837665,44.5931683 182.083,44.2635 C182.328335,43.9338317 182.451,43.5160025 182.451,43.01 C182.451,42.3506634 182.251669,41.852335 181.853,41.515 C181.454331,41.177665 180.95217,40.9170009 180.3465,40.733 C179.74083,40.5489991 179.08917,40.3995006 178.3915,40.2845 C177.69383,40.1694994 177.04217,39.9970012 176.4365,39.767 C175.83083,39.5369989 175.328669,39.2111688 174.93,38.7895 C174.531331,38.3678312 174.332,37.7506707 174.332,36.938 C174.332,36.3553304 174.462332,35.868502 174.723,35.4775 C174.983668,35.086498 175.317165,34.7760011 175.7235,34.546 C176.129835,34.3159988 176.585997,34.1511672 177.092,34.0515 C177.598003,33.9518328 178.103997,33.902 178.61,33.902 C179.223336,33.902 179.798331,33.9709993 180.335,34.109 C180.871669,34.2470007 181.335498,34.4693318 181.7265,34.776 C182.117502,35.0826682 182.424166,35.4736643 182.6465,35.949 C182.868834,36.4243357 182.98,36.99933 182.98,37.674 L182.106,37.674 C182.106,37.1373307 182.017834,36.6773352 181.8415,36.294 C181.665166,35.9106647 181.419835,35.6001679 181.1055,35.3625 C180.791165,35.1248321 180.419335,34.9485006 179.99,34.8335 C179.560665,34.7184994 179.100669,34.661 178.61,34.661 C178.211331,34.661 177.808835,34.6993329 177.4025,34.776 C176.996165,34.8526671 176.632002,34.9829991 176.31,35.167 C175.987998,35.3510009 175.723501,35.5886652 175.5165,35.88 C175.309499,36.1713348 175.206,36.5239979 175.206,36.938 C175.206,37.4133357 175.320999,37.7966652 175.551,38.088 C175.781001,38.3793348 176.083831,38.6131658 176.4595,38.7895 C176.835169,38.9658342 177.256831,39.1076661 177.7245,39.215 C178.192169,39.3223339 178.663664,39.4296661 179.139,39.537 C179.72167,39.6443339 180.269831,39.7708326 180.7835,39.9165 C181.297169,40.0621674 181.741831,40.2614987 182.1175,40.5145 C182.493169,40.7675013 182.788332,41.0933313 183.003,41.492 C183.217668,41.8906687 183.325,42.3966636 183.325,43.01 C183.325,43.6540032 183.179335,44.1829979 182.888,44.597 C182.596665,45.0110021 182.228669,45.3444987 181.784,45.5975 C181.339331,45.8505013 180.844836,46.0268328 180.3005,46.1265 C179.756164,46.2261672 179.223336,46.276 178.702,46.276 C178.02733,46.276 177.402503,46.1878342 176.8275,46.0115 C176.252497,45.8351658 175.750335,45.5668351 175.321,45.2065 C174.891665,44.8461649 174.554335,44.4053359 174.309,43.884 C174.063665,43.3626641 173.933333,42.7570034 173.918,42.067 L174.792,42.067 Z" id="STERLING-associates" fill="#FFFFFF"></path>
                <g id="Group-19">
                    <circle id="Oval" fill="#FFFFFF" cx="26" cy="26" r="26"></circle>
                    <path d="M12.516,29.186 C12.5613336,30.0020041 12.7426651,30.7216635 13.06,31.345 C13.3773349,31.9683364 13.7909975,32.5009978 14.301,32.943 C14.8110026,33.3850022 15.4059966,33.7193322 16.086,33.946 C16.7660034,34.1726678 17.5026627,34.286 18.296,34.286 C18.8626695,34.286 19.4689968,34.2350005 20.115,34.133 C20.7610032,34.0309995 21.3616639,33.8440014 21.917,33.572 C22.4723361,33.2999986 22.9313315,32.9203358 23.294,32.433 C23.6566685,31.9456642 23.838,31.3280037 23.838,30.58 C23.838,29.6053285 23.5433363,28.8686692 22.954,28.37 C22.3646637,27.8713308 21.6223378,27.4860014 20.727,27.214 C19.8316622,26.9419986 18.8683385,26.7210008 17.837,26.551 C16.8056615,26.3809992 15.8423378,26.1260017 14.947,25.786 C14.0516622,25.4459983 13.3093363,24.9643364 12.72,24.341 C12.1306637,23.7176635 11.836,22.8053393 11.836,21.604 C11.836,20.7426624 12.0286647,20.0230029 12.414,19.445 C12.7993353,18.8669971 13.2923303,18.4080017 13.893,18.068 C14.4936697,17.7279983 15.1679963,17.4843341 15.916,17.337 C16.6640037,17.1896659 17.4119963,17.116 18.16,17.116 C19.0666712,17.116 19.9166627,17.217999 20.71,17.422 C21.5033373,17.626001 22.1889971,17.9546644 22.767,18.408 C23.3450029,18.8613356 23.7983317,19.4393298 24.127,20.142 C24.4556683,20.8446702 24.62,21.6946617 24.62,22.692 L23.328,22.692 C23.328,21.8986627 23.197668,21.2186695 22.937,20.652 C22.676332,20.0853305 22.313669,19.6263351 21.849,19.275 C21.384331,18.9236649 20.8346698,18.6630008 20.2,18.493 C19.5653302,18.3229991 18.885337,18.238 18.16,18.238 C17.5706637,18.238 16.9756697,18.2946661 16.375,18.408 C15.7743303,18.5213339 15.2360024,18.7139986 14.76,18.986 C14.2839976,19.2580014 13.8930015,19.6093312 13.587,20.04 C13.2809985,20.4706688 13.128,20.9919969 13.128,21.604 C13.128,22.3066702 13.2979983,22.8733312 13.638,23.304 C13.9780017,23.7346688 14.4256639,24.080332 14.981,24.341 C15.5363361,24.601668 16.1596632,24.8113325 16.851,24.97 C17.5423368,25.1286675 18.2393298,25.2873325 18.942,25.446 C19.8033376,25.6046675 20.6136629,25.7916656 21.373,26.007 C22.1323371,26.2223344 22.7896639,26.5169981 23.345,26.891 C23.9003361,27.2650019 24.3366651,27.7466637 24.654,28.336 C24.9713349,28.9253363 25.13,29.6733288 25.13,30.58 C25.13,31.5320048 24.9146688,32.3139969 24.484,32.926 C24.0533312,33.5380031 23.5093366,34.0309981 22.852,34.405 C22.1946634,34.7790019 21.4636707,35.0396659 20.659,35.187 C19.8543293,35.3343341 19.0666705,35.408 18.296,35.408 C17.2986617,35.408 16.3750042,35.277668 15.525,35.017 C14.6749958,34.756332 13.9326698,34.3596693 13.298,33.827 C12.6633302,33.2943307 12.1646685,32.6426705 11.802,31.872 C11.4393315,31.1013295 11.2466668,30.2060051 11.224,29.186 L12.516,29.186 Z M37.0186665,31.532 L36.9506665,31.532 C36.7466655,32.0533359 36.4520018,32.546331 36.0666665,33.011 C35.6813312,33.475669 35.2110026,33.8893315 34.6556665,34.252 C34.1003304,34.6146685 33.4713367,34.897999 32.7686665,35.102 C32.0659963,35.306001 31.2953374,35.408 30.4566665,35.408 C28.5979905,35.408 27.1586716,35.0056707 26.1386665,34.201 C25.1186614,33.3963293 24.6086665,32.1553417 24.6086665,30.478 C24.6086665,29.4579949 24.8126645,28.6250032 25.2206665,27.979 C25.6286685,27.3329968 26.1443301,26.8230019 26.7676665,26.449 C27.391003,26.0749981 28.0823294,25.8086675 28.8416665,25.65 C29.6010036,25.4913325 30.3319963,25.3780003 31.0346665,25.31 L33.0406665,25.14 C33.9700045,25.0719997 34.7009972,24.9643341 35.2336665,24.817 C35.7663358,24.6696659 36.1686651,24.465668 36.4406665,24.205 C36.7126679,23.944332 36.8826662,23.610002 36.9506665,23.202 C37.0186668,22.793998 37.0526665,22.2840031 37.0526665,21.672 C37.0526665,21.1959976 36.9620007,20.754002 36.7806665,20.346 C36.5993323,19.937998 36.3160018,19.5753349 35.9306665,19.258 C35.5453312,18.9406651 35.0466696,18.6913342 34.4346665,18.51 C33.8226634,18.3286658 33.0746709,18.238 32.1906665,18.238 C30.6266587,18.238 29.3630047,18.6233295 28.3996665,19.394 C27.4363284,20.1646705 26.9093336,21.3319922 26.8186665,22.896 L25.5266665,22.896 C25.6173336,20.9693237 26.2349941,19.5243381 27.3796665,18.561 C28.5243389,17.5976619 30.150656,17.116 32.2586665,17.116 C34.366677,17.116 35.9023284,17.5296625 36.8656665,18.357 C37.8290047,19.1843375 38.3106665,20.26666 38.3106665,21.604 L38.3106665,31.77 C38.3106665,32.0193346 38.3163331,32.2686654 38.3276665,32.518 C38.3389999,32.7673346 38.3786662,32.993999 38.4466665,33.198 C38.5146668,33.402001 38.627999,33.5663327 38.7866665,33.691 C38.945334,33.8156673 39.1719984,33.878 39.4666665,33.878 C39.6933343,33.878 40.0106645,33.8440003 40.4186665,33.776 L40.4186665,34.864 C40.0786648,34.9546671 39.727335,35 39.3646665,35 C38.8433306,35 38.429668,34.9320007 38.1236665,34.796 C37.817665,34.6599993 37.585334,34.4786678 37.4266665,34.252 C37.267999,34.0253322 37.1603335,33.7590015 37.1036665,33.453 C37.0469996,33.1469985 37.0186665,32.8126685 37.0186665,32.45 L37.0186665,31.532 Z M37.0186665,25.072 C36.7013316,25.4573353 36.2196697,25.7179993 35.5736665,25.854 C34.9276633,25.9900007 34.2080038,26.0919997 33.4146665,26.16 L31.2386665,26.364 C30.6039967,26.4320003 29.9693363,26.5283327 29.3346665,26.653 C28.6999967,26.7776673 28.1276691,26.9873319 27.6176665,27.282 C27.107664,27.5766681 26.6940014,27.9789975 26.3766665,28.489 C26.0593316,28.9990026 25.9006665,29.6619959 25.9006665,30.478 C25.9006665,31.7700065 26.3086624,32.7276636 27.1246665,33.351 C27.9406706,33.9743364 29.0626594,34.286 30.4906665,34.286 C31.9640072,34.286 33.1313289,34.0196693 33.9926665,33.487 C34.8540041,32.9543307 35.5113309,32.3423368 35.9646665,31.651 C36.4180021,30.9596632 36.7069992,30.2910032 36.8316665,29.645 C36.9563338,28.9989968 37.0186665,28.5626678 37.0186665,28.336 L37.0186665,25.072 Z" id="sa" fill="#8282A8"></path>
                </g>
            </g>
        </g>
    </g>
</svg>